<?xml version="1.0" encoding="UTF-8" standalone="no"?>
<!-- Created with Inkscape (http://www.inkscape.org/) -->

<svg
   width="60.000412mm"
   height="68.193016mm"
   viewBox="0 0 60.000412 68.193016"
   version="1.1"
   id="svg2048"
   inkscape:version="1.1 (c68e22c387, 2021-05-23)"
   sodipodi:docname="snowflake.svg"
   xmlns:inkscape="http://www.inkscape.org/namespaces/inkscape"
   xmlns:sodipodi="http://sodipodi.sourceforge.net/DTD/sodipodi-0.dtd"
   xmlns="http://www.w3.org/2000/svg"
   xmlns:svg="http://www.w3.org/2000/svg"
   xmlns:rdf="http://www.w3.org/1999/02/22-rdf-syntax-ns#"
   xmlns:cc="http://creativecommons.org/ns#"
   xmlns:dc="http://purl.org/dc/elements/1.1/">
  <sodipodi:namedview
     id="base"
     pagecolor="#ffffff"
     bordercolor="#666666"
     borderopacity="1.0"
     inkscape:pageopacity="0.0"
     inkscape:pageshadow="2"
     inkscape:zoom="1.979899"
     inkscape:cx="26.263966"
     inkscape:cy="131.57237"
     inkscape:document-units="mm"
     inkscape:current-layer="g2620"
     showgrid="false"
     inkscape:window-width="1920"
     inkscape:window-height="1001"
     inkscape:window-x="-9"
     inkscape:window-y="1341"
     inkscape:window-maximized="1"
     borderlayer="true"
     inkscape:snap-smooth-nodes="true"
     inkscape:pagecheckerboard="0"
     inkscape:object-paths="true"
     fit-margin-top="0"
     fit-margin-left="0"
     fit-margin-right="0"
     fit-margin-bottom="0">
    <inkscape:grid
       id="grid2594"
       units="mm"
       type="xygrid"
       empspacing="1"
       spacingy="2.54"
       spacingx="2.54"
       originx="-24.145695"
       originy="-2.3730282" />
  </sodipodi:namedview>
  <defs
     id="defs2042" />
  <metadata
     id="metadata2045">
    <rdf:RDF>
      <cc:Work
         rdf:about="">
        <dc:format>image/svg+xml</dc:format>
        <dc:type
           rdf:resource="http://purl.org/dc/dcmitype/StillImage" />
      </cc:Work>
    </rdf:RDF>
  </metadata>
  <g
     id="g2600"
     sodipodi:insensitive="true"
     inkscape:groupmode="layer"
     inkscape:label="[fixed] BG"
     style="display:none"
     transform="translate(-24.145694,-2.3730284)">
    <rect
       id="rect2598"
       style="fill:#ffffff;fill-opacity:1;stroke:none"
       height="100"
       width="100"
       y="0"
       x="0" />
  </g>
  <g
     id="g2602"
     inkscape:groupmode="layer"
     inkscape:label="F.Cu"
     style="display:none"
     sodipodi:insensitive="true"
     transform="translate(-24.145694,-2.3730284)" />
  <g
     id="g2604"
     inkscape:groupmode="layer"
     inkscape:label="B.Cu-disabled"
     sodipodi:insensitive="true"
     style="display:none"
     transform="translate(-24.145694,-2.3730284)" />
  <g
     id="g2606"
     inkscape:groupmode="layer"
     inkscape:label="B.Adhes-disabled"
     sodipodi:insensitive="true"
     style="display:none"
     transform="translate(-24.145694,-2.3730284)" />
  <g
     id="g2608"
     inkscape:groupmode="layer"
     inkscape:label="F.Adhes-disabled"
     sodipodi:insensitive="true"
     style="display:none"
     transform="translate(-24.145694,-2.3730284)" />
  <g
     id="g2610"
     inkscape:groupmode="layer"
     inkscape:label="B.Paste-disabled"
     sodipodi:insensitive="true"
     style="display:none"
     transform="translate(-24.145694,-2.3730284)" />
  <g
     id="g2612"
     inkscape:groupmode="layer"
     inkscape:label="F.Paste-disabled"
     sodipodi:insensitive="true"
     style="display:none"
     transform="translate(-24.145694,-2.3730284)" />
  <g
     id="g2614"
     inkscape:groupmode="layer"
     inkscape:label="B.SilkS-disabled"
     sodipodi:insensitive="true"
     style="display:none"
     transform="translate(-24.145694,-2.3730284)" />
  <g
     id="g2616"
     inkscape:groupmode="layer"
     inkscape:label="F.SilkS-disabled"
     style="display:inline"
     sodipodi:insensitive="true"
     transform="translate(-24.145694,-2.3730284)" />
  <g
     id="g2618"
     inkscape:groupmode="layer"
     inkscape:label="B.Mask-disabled"
     sodipodi:insensitive="true"
     style="display:none"
     transform="translate(-24.145694,-2.3730284)" />
  <g
     id="g2620"
     inkscape:groupmode="layer"
     inkscape:label="F.Mask"
     style="display:inline"
     sodipodi:insensitive="true"
     transform="translate(-24.145694,-2.3730284)">
    <path
       id="path2711"
       style="display:inline;fill:#000000;fill-opacity:1;stroke:#000000;stroke-width:0.25;stroke-linecap:butt;stroke-linejoin:miter;stroke-miterlimit:5.2;stroke-dasharray:none;stroke-opacity:1"
       d="m 57.611513,28.517669 -0.151455,0.0064 -0.149782,0.01857 -0.147728,0.03051 -0.14491,0.04225 -0.141421,0.05378 -0.137337,0.06518 -0.132559,0.07637 -0.127136,0.08736 -0.0962,0.07549 -0.09092,0.08096 -0.08538,0.08619 -0.07955,0.09113 -0.07343,0.09581 -0.06708,0.100199 -0.06044,0.104354 -0.05354,0.108221 0.01959,-0.04056 0.01027,-0.02146 -0.502501,0.869182 -0.230885,0.105405 -0.11082,0.05357 -0.106137,0.05737 -0.100309,0.06358 -0.09326,0.0722 -0.04362,0.04009 -0.04142,0.04314 -0.03906,0.0465 -0.03655,0.05018 -0.05925,-0.02187 -0.05609,-0.02815 -0.107834,-0.06381 -0.05425,-0.02998 -0.05619,-0.02494 -0.05936,-0.01704 -0.06381,-0.0063 -0.06665,0.0065 -0.06216,0.01762 -0.05893,0.02583 -0.057,0.03115 -0.113114,0.06666 -0.05865,0.02973 -0.06173,0.02347 -0.03686,-0.04935 -0.03968,-0.04576 -0.04226,-0.04249 -0.04467,-0.03951 -0.09587,-0.07124 -0.103296,-0.06274 -0.109196,-0.05661 -0.11359,-0.05274 -0.234373,-0.103208 -0.481503,-0.831389 0.02286,0.05455 -0.04181,-0.08724 -0.04842,-0.08323 -0.05471,-0.07883 -0.06073,-0.07415 -0.06643,-0.06909 -0.07181,-0.0637 -0.07692,-0.05796 -0.08168,-0.05188 -0.03812,-0.04059 -0.03462,-0.0436 -0.06479,-0.09053 -0.03326,-0.04407 -0.03591,-0.04139 -0.04006,-0.03727 -0.0458,-0.03176 h -0.0019 l -0.08502,-0.04615 -0.08653,-0.0413 -0.08781,-0.03648 -0.08899,-0.0317 -0.08994,-0.02698 -0.09073,-0.02232 -0.09137,-0.01769 -0.09181,-0.0131 -0.09209,-0.0086 -0.09219,-0.0041 -0.09211,3.35e-4 -0.09185,0.0047 -0.09145,0.0091 -0.09085,0.01332 -0.09006,0.01757 -0.08913,0.02175 -0.08801,0.02588 -0.08674,0.02998 -0.08524,0.03402 -0.08361,0.03803 -0.08179,0.04195 -0.07981,0.04586 -0.07764,0.04971 -0.0753,0.0535 -0.07279,0.05725 -0.07011,0.06095 -0.06725,0.0646 -0.06421,0.06821 -0.06099,0.07176 -0.05762,0.07528 -0.05409,0.07874 -0.05033,0.08213 v 0.0014 l -0.06976,0.133718 -0.05874,0.138851 -0.04754,0.143292 -0.03603,0.147017 -0.02432,0.150048 -0.01235,0.152364 -1.44e-4,0.153964 0.01232,0.154871 0.01412,0.100653 0.01939,0.09898 0.02449,0.09717 0.02946,0.09521 0.03423,0.09316 0.03887,0.09091 0.04331,0.08857 0.04761,0.08607 0.03079,0.05458 0.52025,0.900385 -0.02432,0.253041 -0.0091,0.122952 -0.0034,0.12085 0.0049,0.118893 0.01594,0.117102 0.01293,0.05794 0.0167,0.05756 0.0208,0.05722 0.02525,0.05687 -0.04854,0.04037 -0.05244,0.03455 -0.109267,0.06157 -0.05313,0.03204 -0.04969,0.03615 -0.04441,0.04278 -0.03727,0.0519 -0.0278,0.06121 -0.01591,0.06288 -0.0072,0.06417 -0.0015,0.06515 0.0012,0.131808 -0.0036,0.06592 -0.01051,0.06551 -0.06097,0.0073 -0.05922,0.01144 -0.05767,0.01533 -0.05628,0.01886 -0.109005,0.04722 -0.105349,0.05777 -0.10296,0.06592 -0.101862,0.07157 -0.205659,0.150383 h -1.003137 l -0.140968,-0.0042 -0.140203,0.0061 -0.138913,0.01638 -0.137074,0.02645 -0.134685,0.03641 -0.131722,0.04622 -0.128212,0.05584 -0.12415,0.06537 h -0.0019 l -0.08256,0.05052 -0.0791,0.05427 -0.07558,0.05777 -0.07203,0.06116 -0.06842,0.06436 -0.06476,0.06737 -0.06108,0.07024 -0.05735,0.07291 -0.05356,0.07539 -0.04974,0.07771 -0.04584,0.07988 -0.04195,0.08184 -0.03796,0.08368 -0.03395,0.08528 -0.02991,0.08673 -0.02578,0.08802 -0.02164,0.08912 -0.01744,0.09005 -0.01321,0.09084 -0.0089,0.09139 -0.0046,0.09182 -1.91e-4,0.09206 0.0042,0.09211 0.0087,0.09201 0.01321,0.09172 0.01777,0.09125 0.02239,0.09065 0.02704,0.08977 0.03173,0.08881 0.03648,0.08786 0.04128,0.08619 0.04611,0.08499 0.0019,0.0031 0.08232,0.128919 0.0924,0.121042 0.101742,0.112685 0.110366,0.104091 0.118226,0.09526 0.125368,0.08547 0.131747,0.07544 0.137408,0.06518 0.113687,0.0456 0.115478,0.0382 0.116959,0.03056 0.118178,0.02316 0.119086,0.01576 0.11973,0.0079 h 0.120113 l 0.120184,-0.0076 -0.104059,0.005 1.043748,0.0019 0.205706,0.146109 0.101241,0.06876 0.102149,0.06303 0.104585,0.05491 0.108527,0.04464 0.05621,0.01767 0.05776,0.01433 0.05951,0.01074 0.06142,0.0064 0.01075,0.06255 0.0038,0.06279 -8.6e-4,0.125816 0.0014,0.06231 0.0067,0.06136 0.0151,0.06016 0.02654,0.05849 0.03906,0.05443 0.04647,0.04512 0.05198,0.0382 0.05561,0.03366 0.114618,0.0647 0.05526,0.03581 0.05134,0.04178 -0.02418,0.05658 -0.01966,0.05706 -0.01553,0.05777 -0.01173,0.05826 -0.01343,0.118176 -0.0024,0.120564 0.0058,0.122474 0.0113,0.124384 0.0278,0.253781 -0.08631,0.151361 -0.01586,-0.06135 0.0032,0.08117 -0.41944,0.72601 -0.03548,0.06327 -0.0052,0.01074 -0.02943,0.0635 -0.02565,0.0647 -0.02184,0.06613 -0.01799,0.06709 -0.01407,0.06804 -0.01013,0.069 -0.0062,0.06923 -0.0021,0.06995 v 0.0019 0.0015 l -0.01572,0.05252 -0.02014,0.05109 -0.04548,0.09956 -0.02133,0.05014 -0.01775,0.05085 -0.01216,0.05228 -0.0046,0.05443 v 0.0019 l 0.0025,0.09645 0.0074,0.09526 0.01223,0.0943 0.01689,0.09263 0.02145,0.0912 0.0259,0.08977 0.03017,0.08786 0.03435,0.08595 0.03841,0.08404 0.0423,0.08189 0.04613,0.07974 0.04978,0.07711 0.05335,0.07473 0.05676,0.0721 0.06006,0.06923 0.06321,0.06637 0.06627,0.06327 0.06918,0.0604 0.07198,0.05682 0.07463,0.05348 0.07719,0.0499 0.07957,0.04631 0.08189,0.0425 0.08404,0.03844 0.0861,0.03462 0.08798,0.03032 0.08977,0.02602 0.09145,0.02149 0.09298,0.01695 0.09438,0.01242 0.09567,0.0074 0.09684,0.0026 h 0.0032 l 0.15425,-0.0069 0.151694,-0.0191 0.148588,-0.03127 0.144981,-0.04321 0.140801,-0.05419 0.136094,-0.06541 0.130863,-0.07616 0.125129,-0.08619 0.08175,-0.06374 0.07774,-0.0678 0.07365,-0.07162 0.06947,-0.07544 0.06522,-0.07878 0.06087,-0.08213 0.05643,-0.08523 0.05191,-0.08786 0.02193,-0.03605 0.522113,-0.9022 0.230574,-0.105285 0.110844,-0.05347 0.106257,-0.05706 0.100429,-0.0635 0.09333,-0.07186 0.04365,-0.03987 0.04142,-0.04321 0.03904,-0.04631 0.0365,-0.05013 0.05898,0.02173 0.05597,0.02793 0.107715,0.06303 0.05418,0.02985 0.05604,0.02459 0.0591,0.01695 0.06338,0.0062 0.06658,-0.0065 0.06208,-0.01743 0.05889,-0.02555 0.05695,-0.0308 0.113017,-0.06613 0.0586,-0.02936 0.06165,-0.0234 0.03686,0.04942 0.03966,0.04584 0.04228,0.0425 0.04467,0.03939 0.09587,0.07115 0.103295,0.06279 0.109196,0.05658 0.113591,0.05276 0.234373,0.103375 0.516952,0.895277 9.27e-4,0.0019 0.06608,0.117699 0.07413,0.112925 0.08182,0.107194 0.08925,0.101226 0.09637,0.09478 0.103152,0.08786 0.109649,0.08069 0.115837,0.07305 h 0.0014 l 0.08514,0.04608 0.08664,0.04154 0.08793,0.03653 0.08908,0.03176 0.09004,0.02721 0.0908,0.0222 0.09142,0.0179 0.09188,0.01313 0.09216,0.0088 0.09221,0.004 0.09221,-2.38e-4 0.09173,-0.0046 0.09149,-0.0091 0.09078,-0.01313 0.0903,-0.01767 0.08911,-0.02173 0.08791,-0.02578 0.08672,-0.02984 0.08528,-0.03414 0.08361,-0.03796 0.08194,-0.04202 0.07979,-0.04584 0.07764,-0.04966 0.07525,-0.05372 0.07286,-0.0573 0.07023,-0.06112 0.06737,-0.0647 0.06426,-0.06828 0.06116,-0.0721 0.05757,-0.07544 0.05422,-0.07878 0.05065,-0.08237 v -0.0038 l 0.07071,-0.135843 0.05925,-0.14038 0.04754,-0.144199 0.0356,-0.147064 0.02389,-0.149452 0.01195,-0.150883 -2.4e-4,-0.152078 -0.01219,-0.151839 -0.01696,-0.118654 -0.0246,-0.11746 -0.03153,-0.116028 -0.03918,-0.113879 -0.04635,-0.111492 -0.05351,-0.108627 -0.06068,-0.105523 -0.06784,-0.101704 0.02341,0.03295 0.01386,0.02149 -0.500948,-0.865434 0.02461,-0.253303 0.0096,-0.12319 0.0038,-0.121281 -0.0048,-0.118892 -0.01553,-0.117461 -0.0129,-0.05802 -0.01672,-0.05753 -0.02078,-0.0573 -0.02508,-0.05682 0.0485,-0.04035 0.05232,-0.03462 0.109411,-0.06183 0.05303,-0.03199 0.04969,-0.03629 0.04443,-0.04274 0.03726,-0.05205 0.02771,-0.06112 0.01553,-0.06255 0.0069,-0.06398 0.0012,-0.06494 -0.0017,-0.131307 0.0034,-0.06565 0.01027,-0.06518 0.06116,-0.0074 0.05948,-0.01146 0.05805,-0.01528 0.05638,-0.01886 0.109649,-0.04727 0.105827,-0.05802 0.103439,-0.06613 0.102482,-0.0721 0.2064,-0.151123 h 0.999267 l 0.140944,0.0043 0.140227,-0.0062 0.139032,-0.01623 0.137123,-0.02626 0.134493,-0.03653 0.131866,-0.04608 0.128283,-0.05587 0.123983,-0.06518 h 0.0019 l 0.08242,-0.05061 0.07907,-0.05396 0.07549,-0.05777 0.07214,-0.06112 0.06832,-0.06423 0.06474,-0.06732 0.06116,-0.07019 0.05757,-0.07258 0.05351,-0.07544 0.04993,-0.07759 0.04587,-0.07974 0.04205,-0.08189 0.03822,-0.08356 0.03416,-0.08523 0.02986,-0.08666 0.02604,-0.08795 0.02174,-0.08907 0.01767,-0.09005 0.01338,-0.09079 0.0091,-0.09141 0.0048,-0.09182 2.39e-4,-0.09208 -0.004,-0.09218 -0.0086,-0.09206 -0.01314,-0.09182 -0.01767,-0.09137 -0.02246,-0.09074 -0.027,-0.08996 -0.03177,-0.08903 -0.03655,-0.08786 -0.04132,-0.08659 -0.04635,-0.08509 -0.0019,-0.0037 -0.08361,-0.130949 -0.09341,-0.122116 -0.102482,-0.113115 -0.110606,-0.103853 -0.118249,-0.09433 -0.125177,-0.08461 -0.13091,-0.07463 -0.136406,-0.06444 -0.112515,-0.04498 -0.114905,-0.03789 -0.116817,-0.03068 -0.118249,-0.0233 -0.119444,-0.01578 -0.119922,-0.0081 -0.120399,-2.87e-4 -0.119921,0.0076 0.104155,-0.0052 -1.04179,-0.0019 -0.206638,-0.146802 -0.101767,-0.06916 -0.102482,-0.06329 -0.10535,-0.05517 -0.108933,-0.04477 -0.05637,-0.01779 -0.05805,-0.01435 -0.05972,-0.0106 -0.06163,-0.0066 -0.01075,-0.06221 -0.0036,-0.06262 0.0015,-0.125244 -9.27e-4,-0.06198 -0.0064,-0.06109 -0.01481,-0.05992 -0.02652,-0.05839 -0.03918,-0.05463 -0.04634,-0.04512 -0.05208,-0.03813 -0.05566,-0.03373 -0.114427,-0.06451 -0.05518,-0.03593 -0.05136,-0.04176 0.02413,-0.05632 0.01959,-0.05696 0.01553,-0.05761 0.0117,-0.0582 0.01338,-0.118153 0.0024,-0.120325 -0.006,-0.122378 -0.01123,-0.124217 -0.02747,-0.253399 0.499036,-0.864957 -0.01576,0.02099 0.04682,-0.07592 0.04085,-0.07883 0.03464,-0.08139 0.02891,-0.08363 0.02245,-0.08549 0.01625,-0.08704 0.0098,-0.08822 0.0034,-0.08907 0.01552,-0.05247 0.02006,-0.05097 0.04491,-0.09979 0.02102,-0.04999 0.01768,-0.05088 0.01195,-0.05233 0.0046,-0.05436 v -0.0019 l -0.0024,-0.09647 -0.0076,-0.09535 -0.01219,-0.09409 -0.01696,-0.09273 -0.0215,-0.09122 -0.02604,-0.0896 -0.03034,-0.08783 -0.0344,-0.08595 -0.0387,-0.08394 -0.04228,-0.08182 -0.04635,-0.07952 -0.04993,-0.07716 -0.05351,-0.07461 -0.05686,-0.07198 -0.0602,-0.06919 -0.06331,-0.0663 -0.06641,-0.06327 -0.06928,-0.06011 -0.07191,-0.05682 -0.07477,-0.05341 -0.07716,-0.04987 -0.07955,-0.0462 -0.08194,-0.0424 -0.08409,-0.03849 -0.086,-0.03443 -0.08791,-0.03025 -0.08958,-0.02595 -0.09126,-0.02153 -0.09293,-0.01695 -0.09412,-0.01227 -0.09532,-0.0075 -0.09651,-0.0025 h -0.0034 v -2.15e-4 m -5.716291,5.486345 -0.330726,-0.572707 -0.124417,-0.01056 -0.124148,-0.02707 -0.121799,-0.04295 -0.117194,-0.0582 -0.07494,-0.04728 -0.06925,-0.05207 -0.06329,-0.0563 -0.05724,-0.05991 -0.05102,-0.06308 -0.04451,-0.06568 -0.03774,-0.06786 -0.03088,-0.06948 -0.02383,-0.07047 -0.01643,-0.0711 -0.009,-0.0711 -0.0013,-0.07065 0.0066,-0.06966 0.01472,-0.06822 0.02302,-0.06605 0.0316,-0.06362 0.05688,-0.0804 0.07088,-0.07002 -0.706417,-1.223195 -0.006,-0.01056 -0.04722,-0.07607 -0.03702,-0.08112 -0.02618,-0.08518 -0.01508,-0.08825 -0.005,-0.112249 0.013,-0.110896 0.0307,-0.107377 0.04794,-0.101693 0.03855,-0.05955 0.04352,-0.05423 0.04795,-0.049 0.0521,-0.04349 0.05553,-0.0379 0.05869,-0.03213 0.06122,-0.02625 0.06329,-0.02021 0.06501,-0.01417 0.06618,-0.0078 0.06681,-0.0015 0.06708,0.005 0.06681,0.01164 0.066,0.01841 0.06483,0.02526 0.06311,0.03239 0.09101,0.06289 0.07936,0.07616 0.06627,0.08762 0.05182,0.09781 7.28e-4,-4.52e-4 0.0068,0.01173 0.708583,1.226985 0.08577,-0.02093 0.08722,-0.0073 0.02185,9.92e-4 0.0039,-1.81e-4 0.02185,0.0013 0.0017,1.8e-4 0.06907,0.0072 0.06681,0.01534 0.06438,0.0231 0.06167,0.0305 0.0586,0.03735 0.05508,0.04395 0.05147,0.04999 0.0474,0.05568 0.04298,0.061 0.03828,0.06587 0.03331,0.07029 0.02799,0.07435 0.0223,0.07796 0.01634,0.08121 0.01012,0.08401 0.0035,0.08635 -0.0082,0.130567 -0.02366,0.126957 -0.03865,0.121002 -0.05309,0.113062 0.323954,0.560976 0.184099,-0.09068 0.192314,-0.540314 0.0035,-0.06885 0.0102,-0.06677 0.01661,-0.06452 0.02266,-0.06172 0.02835,-0.05892 0.03368,-0.05541 0.03882,-0.05179 0.04343,-0.04782 0.04785,-0.0434 0.05182,-0.0388 0.05553,-0.03366 0.05878,-0.02833 0.06184,-0.02265 0.06456,-0.0166 0.06681,-0.01019 0.0688,-0.0035 0.06889,0.0034 0.06681,0.0101 0.06446,0.0166 0.06184,0.02256 0.05887,0.02833 0.05544,0.03375 0.05182,0.03871 0.04785,0.0434 0.04333,0.04774 0.03883,0.05179 0.03368,0.05549 0.02835,0.05883 0.02257,0.06181 0.01661,0.06442 0.0102,0.06677 0.0034,0.06885 0.192044,0.536253 0.148976,0.07029 v 0 l 0.330997,-0.572797 -0.05309,-0.112971 -0.03855,-0.121002 -0.02356,-0.126958 -0.0081,-0.130567 0.0036,-0.08861 0.01047,-0.0859 0.01707,-0.08301 0.02338,-0.0795 0.02917,-0.0757 0.03476,-0.07137 0.03991,-0.06659 0.04478,-0.06154 0.04921,-0.05586 0.05336,-0.0499 0.05715,-0.0434 0.06058,-0.03646 0.06365,-0.02914 0.06636,-0.0213 0.0688,-0.01318 0.07088,-0.0045 0.09814,0.009 0.09607,0.02626 0.706957,-1.223466 0.0062,-0.01056 0.04226,-0.07886 0.05182,-0.07264 0.06067,-0.06533 0.06898,-0.05721 0.09471,-0.06055 0.102567,-0.04421 0.108346,-0.02716 0.112048,-0.0094 0.07088,0.0035 0.0688,0.01047 0.06645,0.01705 0.06356,0.02328 0.06058,0.02906 0.05716,0.03474 0.05336,0.03988 0.0492,0.04467 0.04469,0.04918 0.03991,0.05333 0.03467,0.05712 0.02917,0.06055 0.02329,0.06362 0.01707,0.06641 0.01047,0.06876 0.0036,0.07083 -0.0091,0.110265 -0.02628,0.106745 -0.04289,0.101241 -0.05878,0.09375 7.28e-4,4.52e-4 -0.0068,0.01164 -0.709125,1.227346 0.06094,0.06379 0.04993,0.07182 0.01011,0.0194 0.0021,0.0032 0.0098,0.01967 7.28e-4,0.0015 0.02826,0.06334 0.02004,0.06551 0.01219,0.06731 0.0044,0.06858 -0.0032,0.06939 -0.01047,0.06975 -0.0176,0.06948 -0.02465,0.06885 -0.03133,0.06776 -0.03792,0.06614 -0.04424,0.06397 -0.05047,0.06145 -0.05634,0.05838 -0.06221,0.05477 -0.06772,0.05071 -0.07313,0.04629 -0.117284,0.05829 -0.121799,0.04295 -0.124147,0.02716 -0.124417,0.01056 -0.324225,0.561157 0.170464,0.113964 0.564302,-0.103858 0.0614,-0.0314 0.06293,-0.02463 0.06419,-0.01786 0.06483,-0.01137 0.06519,-0.0049 0.06491,0.0015 0.06419,0.0077 0.06311,0.01371 0.06157,0.01967 0.0595,0.02545 0.05688,0.03122 0.05399,0.03673 0.05047,0.04223 0.04668,0.04755 0.04217,0.05269 0.03747,0.05784 0.03133,0.06127 0.02455,0.06298 0.01797,0.06407 0.01129,0.06488 0.0049,0.06506 -0.0015,0.06497 -0.0077,0.06416 -0.01381,0.06307 -0.01959,0.06154 -0.02555,0.05946 -0.03115,0.05694 -0.03684,0.05396 -0.04226,0.05044 -0.04758,0.04665 -0.05282,0.04223 -0.05788,0.03745 -0.368648,0.43465 0.01346,0.164134 v 0 l 0.661724,-1.81e-4 0.07142,-0.102414 0.08559,-0.09402 0.09814,-0.08392 0.109068,-0.07237 0.07855,-0.04124 0.07972,-0.03384 0.08045,-0.02671 0.08054,-0.01967 0.08018,-0.01254 0.07918,-0.0057 0.07774,0.0012 0.07566,0.0079 0.07295,0.01462 0.06988,0.0212 0.06609,0.02779 0.06194,0.03411 0.05706,0.04051 0.05165,0.04683 0.04578,0.05297 0.03927,0.0591 0.04127,0.08942 0.02519,0.09628 1.413284,-2.71e-4 0.01219,-9e-5 0.08957,-0.003 0.08875,0.0086 0.08695,0.01985 0.08397,0.03113 0.09977,0.0517 0.08966,0.06668 0.07765,0.08022 0.06411,0.09222 0.03232,0.06316 0.02528,0.06479 0.01842,0.06596 0.01165,0.06677 0.005,0.06704 -0.0015,0.06677 -0.0079,0.06614 -0.01418,0.06497 -0.02032,0.06334 -0.02628,0.06118 -0.03214,0.05856 -0.03783,0.05558 -0.04352,0.05197 -0.04903,0.04801 -0.05436,0.04349 -0.05959,0.03844 -0.10004,0.04737 -0.105637,0.03059 -0.109159,0.01363 -0.110603,-0.004 v 7.27e-4 h -0.01354 l -1.417708,3.61e-4 -0.02483,0.08473 -0.03729,0.07904 -0.01183,0.0185 -0.0017,0.0034 -0.0121,0.01823 -9.26e-4,0.0013 -0.04081,0.05613 -0.04668,0.05026 -0.05228,0.04413 -0.05724,0.03817 -0.06167,0.03203 -0.06564,0.0258 -0.06907,0.01949 -0.07196,0.01318 -0.0744,0.0068 -0.0762,2.71e-4 -0.07756,-0.0063 -0.07846,-0.01291 -0.07873,-0.01967 -0.07855,-0.02635 -0.07774,-0.0333 -0.07666,-0.04007 -0.109068,-0.07237 -0.09814,-0.08392 -0.0855,-0.09393 -0.07142,-0.102414 -0.64809,1.8e-4 -0.01363,0.204649 0.371989,0.436455 0.05788,0.03726 0.05273,0.04223 0.04758,0.04665 0.04226,0.05044 0.03675,0.05396 0.03115,0.05694 0.02556,0.05937 0.01959,0.06154 0.01373,0.06307 0.0077,0.06424 0.0015,0.06488 -0.0049,0.06506 -0.01129,0.06488 -0.01797,0.06416 -0.02456,0.06289 -0.03142,0.06135 -0.03747,0.05784 -0.04226,0.05279 -0.04659,0.04755 -0.05056,0.04223 -0.05399,0.03673 -0.05697,0.03122 -0.05941,0.02553 -0.06157,0.01967 -0.06311,0.01371 -0.06429,0.0077 -0.06491,0.0015 -0.0651,-0.0049 -0.06483,-0.01128 -0.06419,-0.01796 -0.06302,-0.02454 -0.0613,-0.03131 -0.560781,-0.101602 -0.135523,0.09375 0.330727,0.572616 0.124507,0.01065 0.124147,0.02707 0.121799,0.04286 0.117195,0.05829 0.07494,0.04728 0.06925,0.05207 0.06329,0.05622 0.05724,0.06001 0.05092,0.06298 0.04451,0.06578 0.03783,0.06785 0.03088,0.06948 0.02375,0.07047 0.01653,0.0711 0.009,0.0711 0.0013,0.07065 -0.0066,0.06966 -0.01472,0.06822 -0.02311,0.06605 -0.03151,0.06362 -0.05688,0.0804 -0.07079,0.07011 0.706326,1.223105 0.006,0.01056 0.04731,0.07607 0.03693,0.08112 0.02618,0.08518 0.01508,0.08825 0.005,0.112249 -0.013,0.110896 -0.0307,0.107377 -0.04785,0.101693 -0.03855,0.05955 -0.04361,0.05432 -0.04795,0.04891 -0.05201,0.04349 -0.05562,0.0379 -0.0586,0.03213 -0.06122,0.02626 -0.06338,0.02021 -0.06501,0.01417 -0.06618,0.0078 -0.06681,0.0015 -0.06708,-0.005 -0.06672,-0.01164 -0.06609,-0.01841 -0.06483,-0.02526 -0.06311,-0.0324 -0.09101,-0.06289 -0.07927,-0.07607 -0.06636,-0.08771 -0.05182,-0.09772 -6.32e-4,3.61e-4 -0.0068,-0.01164 -0.708583,-1.226984 -0.08577,0.02085 -0.08722,0.0073 -0.02194,-9.25e-4 -0.0039,1.8e-4 -0.02185,-0.0013 -0.0017,-1.81e-4 -0.06898,-0.0071 -0.06681,-0.01534 -0.06446,-0.0231 -0.06167,-0.03041 -0.0585,-0.03745 -0.05516,-0.04386 -0.05137,-0.04999 -0.04741,-0.05576 -0.04298,-0.061 -0.03828,-0.06587 -0.03331,-0.07029 -0.02799,-0.07426 -0.02239,-0.07796 -0.01634,-0.08121 -0.01002,-0.08401 -0.0035,-0.08635 0.0081,-0.130656 0.02366,-0.126958 0.03865,-0.121002 0.05309,-0.112971 -0.323955,-0.560977 -0.184098,0.09059 -0.192314,0.540404 -0.0035,0.06876 -0.0102,0.06677 -0.01661,0.06452 -0.02266,0.06181 -0.02835,0.05883 -0.03377,0.05549 -0.03873,0.0517 -0.04343,0.04782 -0.04785,0.04349 -0.05182,0.03871 -0.05553,0.03374 -0.05887,0.02833 -0.06185,0.02256 -0.06446,0.0166 -0.06681,0.01019 -0.06889,0.0035 -0.0688,-0.0034 -0.06681,-0.0102 -0.06456,-0.01651 -0.06176,-0.02265 -0.05887,-0.02833 -0.05553,-0.03366 -0.05174,-0.03871 -0.04776,-0.04349 -0.04352,-0.04773 -0.03865,-0.0518 -0.03377,-0.05541 -0.02835,-0.05883 -0.02257,-0.06181 -0.01661,-0.06442 -0.01011,-0.06686 -0.0034,-0.06876 -0.192133,-0.536253 -0.148976,-0.07038 v 0 l -0.330997,0.572798 0.053,0.112971 0.03865,0.121092 0.02356,0.126867 0.0081,0.130567 -0.0036,0.08852 -0.01047,0.08599 -0.01707,0.08302 -0.02338,0.07949 -0.02917,0.0757 -0.03476,0.07138 -0.03991,0.06668 -0.04479,0.06145 -0.0492,0.05585 -0.05336,0.0499 -0.05706,0.04331 -0.06067,0.03646 -0.06365,0.02914 -0.06636,0.02138 -0.0688,0.01318 -0.07088,0.0045 -0.09805,-0.009 -0.09616,-0.02626 -0.706868,1.223465 -0.0062,0.01056 -0.04226,0.07895 -0.05182,0.07255 -0.06077,0.06533 -0.06889,0.05721 -0.0948,0.06055 -0.102567,0.04421 -0.108346,0.02716 -0.112048,0.0095 -0.07088,-0.0036 -0.0688,-0.01056 -0.06636,-0.01697 -0.06374,-0.02337 -0.06058,-0.02906 -0.05706,-0.03474 -0.05336,-0.03988 -0.04921,-0.04467 -0.04469,-0.04918 -0.03991,-0.05333 -0.03467,-0.05712 -0.02916,-0.06055 -0.02329,-0.06362 -0.01707,-0.06641 -0.01047,-0.06876 -0.0035,-0.07083 0.0091,-0.110264 0.02628,-0.106746 0.04289,-0.101241 0.05878,-0.09375 -7.28e-4,-3.61e-4 0.0068,-0.01173 0.709125,-1.227345 -0.06095,-0.0637 -0.04984,-0.07191 -0.01011,-0.0194 -0.0021,-0.0032 -0.0098,-0.01967 -6.32e-4,-0.0015 -0.02826,-0.06325 -0.02014,-0.06551 -0.0121,-0.0674 -0.0044,-0.06858 0.0032,-0.06939 0.01047,-0.06966 0.0177,-0.06957 0.02455,-0.06885 0.03133,-0.06776 0.03792,-0.06605 0.04424,-0.06407 0.05047,-0.06135 0.05643,-0.05838 0.06212,-0.05477 0.06772,-0.0508 0.07313,-0.0462 0.117285,-0.05829 0.121799,-0.04304 0.124146,-0.02707 0.124508,-0.01064 0.324136,-0.561067 -0.170465,-0.113964 -0.564302,0.103857 -0.0613,0.0314 -0.06302,0.02454 -0.06419,0.01796 -0.06483,0.01128 -0.0651,0.0049 -0.06491,-0.0015 -0.06429,-0.0077 -0.06311,-0.01363 -0.06149,-0.01967 -0.0595,-0.02545 -0.05697,-0.03122 -0.05399,-0.03673 -0.05047,-0.04223 -0.04659,-0.04755 -0.04226,-0.05269 -0.03747,-0.05784 -0.03133,-0.06127 -0.02456,-0.06298 -0.01787,-0.06407 -0.01138,-0.06488 -0.0049,-0.06506 0.0015,-0.06497 0.0077,-0.06415 0.01381,-0.06316 0.01968,-0.06145 0.02546,-0.05946 0.03124,-0.05694 0.03675,-0.05396 0.04226,-0.05044 0.04758,-0.04665 0.05282,-0.04223 0.05788,-0.03745 0.368648,-0.43465 -0.01346,-0.164134 -0.661723,1.81e-4 -0.07142,0.102414 -0.08559,0.09402 -0.09814,0.08391 -0.109159,0.07237 -0.07846,0.04114 -0.07972,0.03393 -0.08045,0.02671 -0.08054,0.01967 -0.08018,0.01254 -0.07927,0.0057 -0.07765,-0.0012 -0.07566,-0.0079 -0.07295,-0.01462 -0.06988,-0.0213 -0.06609,-0.0277 -0.06194,-0.03411 -0.05706,-0.0406 -0.05164,-0.04674 -0.04578,-0.05297 -0.03927,-0.0591 -0.04117,-0.08942 -0.02528,-0.09628 -1.413285,2.71e-4 -0.01228,9e-5 -0.08948,0.003 -0.08875,-0.0086 -0.08695,-0.01994 -0.08397,-0.03104 -0.09986,-0.0517 -0.08957,-0.06668 -0.07765,-0.08022 -0.06411,-0.09222 -0.03232,-0.06307 -0.02528,-0.06488 -0.01842,-0.06596 -0.01165,-0.06677 -0.005,-0.06704 0.0015,-0.06677 0.0079,-0.06614 0.01408,-0.06497 0.02032,-0.06335 0.02627,-0.06118 0.03214,-0.05856 0.03792,-0.05549 0.04352,-0.05207 0.04903,-0.04791 0.05436,-0.04349 0.05959,-0.03853 0.10004,-0.04728 0.105637,-0.03068 0.109158,-0.01353 0.110604,0.004 9e-5,-7.93e-4 h 0.01346 l 1.417709,-3.61e-4 0.02483,-0.08464 0.03738,-0.07913 0.01183,-0.0185 0.0017,-0.0034 0.0121,-0.01823 9.26e-4,-0.0013 0.04072,-0.05613 0.04677,-0.05017 0.05228,-0.04421 0.05724,-0.03817 0.06167,-0.03203 0.06564,-0.02572 0.06907,-0.01958 0.07196,-0.01318 0.07431,-0.0068 0.07629,-2.7e-4 0.07756,0.0063 0.07846,0.01291 0.07873,0.01967 0.07846,0.02635 0.07783,0.0333 0.07666,0.04007 0.109068,0.07237 0.09814,0.08392 0.0855,0.09393 0.07142,0.102414 0.64809,-1.8e-4 0.01363,-0.204648 -0.371988,-0.436365 -0.05778,-0.03745 -0.05282,-0.04223 -0.04758,-0.04656 -0.04226,-0.05053 -0.03675,-0.05387 -0.03115,-0.05694 -0.02546,-0.05946 -0.01968,-0.06145 -0.01373,-0.06316 -0.0077,-0.06416 -0.0015,-0.06488 0.0049,-0.06515 0.01129,-0.06479 0.01797,-0.06415 0.02455,-0.06298 0.03151,-0.06127 0.03738,-0.05784 0.04234,-0.05279 0.04659,-0.04755 0.05056,-0.04223 0.0539,-0.03673 0.05697,-0.03131 0.0595,-0.02545 0.06157,-0.01967 0.06311,-0.01372 0.06419,-0.0077 0.06491,-0.0015 0.06518,0.0049 0.06483,0.01128 0.06419,0.01786 0.06293,0.02454 0.0613,0.0314 0.560781,0.101692 0.134981,-0.09384" />
    <path
       id="path4416"
       style="display:inline;stroke:#000000;stroke-width:0.25"
       d="m 47.020836,21.747066 a 1.375,1.375 0 0 1 -1.375,1.375 1.375,1.375 0 0 1 -1.375,-1.375 1.375,1.375 0 0 1 1.375,-1.375 1.375,1.375 0 0 1 1.375,1.375 z" />
    <path
       id="circle4558"
       style="display:inline;stroke:#000000;stroke-width:0.25"
       d="m 64.020836,51.191929 a 1.375,1.375 0 0 1 -1.375,1.375 1.375,1.375 0 0 1 -1.375,-1.375 1.375,1.375 0 0 1 1.375,-1.375 1.375,1.375 0 0 1 1.375,1.375 z" />
    <path
       id="circle4562"
       style="display:inline;stroke:#000000;stroke-width:0.25"
       transform="rotate(60)"
       d="m 51.530361,-43.378376 a 1.375,1.375 0 0 1 -1.375,1.375 1.375,1.375 0 0 1 -1.375,-1.375 1.375,1.375 0 0 1 1.375,-1.375 1.375,1.375 0 0 1 1.375,1.375 z" />
    <path
       id="circle4564"
       style="display:inline;stroke:#000000;stroke-width:0.25"
       transform="rotate(60)"
       d="m 68.530365,-13.933511 a 1.375,1.375 0 0 1 -1.375,1.375 1.375,1.375 0 0 1 -1.375,-1.375 1.375,1.375 0 0 1 1.375,-1.375 1.375,1.375 0 0 1 1.375,1.375 z" />
    <path
       id="circle4568"
       style="display:inline;stroke:#000000;stroke-width:0.25"
       transform="rotate(120)"
       d="m -2.6152847,-79.84626 a 1.375,1.375 0 0 1 -1.375,1.375 1.375,1.375 0 0 1 -1.375,-1.375 1.375,1.375 0 0 1 1.375,-1.375 1.375,1.375 0 0 1 1.375,1.375 z" />
    <path
       id="circle4570"
       style="display:inline;stroke:#000000;stroke-width:0.25"
       transform="rotate(120)"
       d="m 14.384721,-50.401394 a 1.375,1.375 0 0 1 -1.375,1.375 1.375,1.375 0 0 1 -1.375,-1.375 1.375,1.375 0 0 1 1.375,-1.375 1.375,1.375 0 0 1 1.375,1.375 z" />
  </g>
  <g
     id="g2622"
     inkscape:groupmode="layer"
     inkscape:label="Dwgs.User-disabled"
     sodipodi:insensitive="true"
     style="display:none"
     transform="translate(-24.145694,-2.3730284)" />
  <g
     id="g2624"
     inkscape:groupmode="layer"
     inkscape:label="Cmts.User-disabled"
     sodipodi:insensitive="true"
     style="display:none"
     transform="translate(-24.145694,-2.3730284)" />
  <g
     id="g2626"
     inkscape:groupmode="layer"
     inkscape:label="Eco1.User-disabled"
     sodipodi:insensitive="true"
     style="display:none"
     transform="translate(-24.145694,-2.3730284)" />
  <g
     id="g2628"
     inkscape:groupmode="layer"
     inkscape:label="Eco2.User-disabled"
     sodipodi:insensitive="true"
     style="display:none"
     transform="translate(-24.145694,-2.3730284)" />
  <g
     id="g2630"
     inkscape:groupmode="layer"
     inkscape:label="Edge.Cuts"
     style="display:inline"
     sodipodi:insensitive="true"
     transform="translate(-24.145694,-2.3730284)">
    <path
       style="display:inline;vector-effect:none;fill:none;fill-opacity:1;fill-rule:nonzero;stroke:#000000;stroke-width:0.1;stroke-miterlimit:5.2;stroke-dasharray:none;stroke-dashoffset:0;stroke-opacity:1"
       d="m 56.695,15.4851 -0.0124,0.2519 -0.037,0.2476 -0.0607,0.2418 -0.0838,0.2341 -0.1064,0.2248 -0.1278,0.214 -0.1491,0.2011 -0.1693,0.187 -0.1871,0.1694 -0.2013,0.149 -0.2139,0.1279 -0.2247,0.1063 -0.2343,0.0838 -0.2417,0.0609 -0.2477,0.0368 -0.252,0.0126 -0.2519,-0.0126 -0.2476,-0.0368 -0.2419,-0.0609 -0.234,-0.0838 -0.2248,-0.1063 -0.214,-0.1279 -0.2012,-0.149 -0.187,-0.1694 -0.1694,-0.187 -0.149,-0.2011 -0.1279,-0.214 -0.1063,-0.2248 -0.0838,-0.2341 -0.0608,-0.2418 -0.037,-0.2476 -0.0125,-0.2519 0.0132,-0.2607 0.0386,-0.253 0.0628,-0.2444 0.0857,-0.2341 0.1074,-0.2229 0.1277,-0.2101 0.1467,-0.1963 0.1646,-0.181 0.181,-0.1645 0.1962,-0.1467 0.2102,-0.1277 0.2228,-0.1074 0.2342,-0.0857 0.2443,-0.0628 0.2532,-0.0386 0.2605,-0.0132 0.2607,0.0132 0.2531,0.0386 0.2443,0.0628 0.2342,0.0857 0.2229,0.1074 0.2102,0.1277 0.1962,0.1467 0.181,0.1645 0.1646,0.181 0.1467,0.1963 0.1277,0.2101 0.1074,0.2229 0.0857,0.2341 0.0628,0.2444 0.0386,0.253 0.0131,0.2607 v 0"
       id="path2677"
       inkscape:connector-curvature="0" />
    <path
       style="display:inline;fill:none;fill-opacity:1;stroke:#000000;stroke-width:0.1;stroke-linecap:butt;stroke-linejoin:miter;stroke-miterlimit:5.2;stroke-dasharray:none;stroke-opacity:1"
       d="m 39.98,31.9708 -2.5509,-1.4725 -0.5034,0.2361 -0.5391,0.172 -0.5653,0.1053 -0.5818,0.0362 -0.3943,-0.0158 -0.3828,-0.0467 -0.3696,-0.076 -0.3543,-0.1037 -0.337,-0.1298 -0.3179,-0.1545 -0.2969,-0.1776 -0.2738,-0.1991 -0.2489,-0.2189 -0.2219,-0.2375 -0.1932,-0.2542 -0.1623,-0.2697 -0.1297,-0.2833 -0.095,-0.2957 -0.0584,-0.3062 -0.0199,-0.3153 0.0402,-0.4367 0.117,-0.4277 -5.4486,-3.145 -0.047,-0.0272 -0.3516,-0.1879 -0.3232,-0.2306 -0.2908,-0.2703 -0.2547,-0.3066 -0.2696,-0.4216 -0.1968,-0.4566 -0.1209,-0.4824 -0.0418,-0.4986 0.0159,-0.3154 0.0468,-0.3063 0.076,-0.2956 0.1038,-0.2835 0.1299,-0.2697 0.1546,-0.2542 0.1776,-0.2375 0.1992,-0.219 0.2191,-0.1991 0.2375,-0.1776 0.2544,-0.1545 0.2697,-0.1299 0.2835,-0.1037 0.2957,-0.0761 0.3063,-0.0468 0.3154,-0.0158 0.4911,0.0403 0.4755,0.1169 0.4509,0.1907 0.4175,0.2616 0.0018,-0.0031 0.0522,0.03 5.4656,3.1548 0.2842,-0.2714 0.3202,-0.2221 0.0865,-0.045 0.0144,-0.0094 0.0874,-0.0435 0.0067,-0.0031 0.282,-0.1259 0.292,-0.0895 0.2998,-0.0542 0.3056,-0.0196 0.3091,0.0137 0.3103,0.0467 0.3097,0.0785 0.3068,0.1093 0.3017,0.1395 0.2944,0.1687 0.285,0.1969 0.2735,0.2245 0.2599,0.251 0.2439,0.2766 0.226,0.3015 0.2058,0.3254 0.2595,0.5219 0.1915,0.5419 0.1205,0.5528 0.0471,0.5539 2.4988,1.4424 0.508,-0.7592 -0.462,-2.5114 -0.1398,-0.2731 -0.1094,-0.2803 -0.0796,-0.2857 -0.0504,-0.2886 -0.0217,-0.2901 0.0064,-0.2889 0.0341,-0.286 0.0612,-0.2809 0.0875,-0.2739 0.1135,-0.2648 0.139,-0.2534 0.1638,-0.2402 0.188,-0.2249 0.2119,-0.2076 0.235,-0.1881 0.2576,-0.1665 0.2731,-0.1399 0.2803,-0.1094 0.2857,-0.0796 0.2888,-0.0505 0.29,-0.0217 0.289,0.0064 0.286,0.0341 0.2811,0.061 0.2738,0.0877 0.2648,0.1134 0.2534,0.1389 0.2404,0.1638 0.2249,0.1879 0.2075,0.2118 0.188,0.2349 0.1667,0.2575 1.9352,1.6405 0.7313,-0.0602 h -10e-5 l 3e-4,-2.9453 -0.4563,-0.3177 -0.4183,-0.3808 -0.3737,-0.4369 -0.3224,-0.4856 -0.1833,-0.3493 -0.151,-0.3549 -0.1189,-0.358 -0.0872,-0.3586 -0.0561,-0.3568 -0.0251,-0.3525 0.0055,-0.3458 0.0355,-0.3367 0.0654,-0.3251 0.0946,-0.3109 0.1238,-0.2944 0.1523,-0.2754 0.1806,-0.254 0.2085,-0.2301 0.2361,-0.2038 0.2632,-0.1749 0.3982,-0.1836 0.4292,-0.1125 4e-4,-6.29084 V 5.86504 l -0.013,-0.39846 0.0382,-0.3952 0.0886,-0.387 0.1384,-0.37393 0.2304,-0.44428 0.2971,-0.39878 0.3573,-0.34587 0.411,-0.28559 0.2812,-0.14393 0.2886,-0.11269 0.2942,-0.082 0.2972,-0.05189 0.2985,-0.02235 0.2977,0.00663 0.2944,0.03504 0.2894,0.06289 0.282,0.09015 0.2725,0.11687 0.261,0.143 0.2473,0.16857 0.2315,0.19358 0.2137,0.21801 0.1936,0.24189 0.1715,0.26518 0.2105,0.44535 0.1365,0.47018 0.0602,0.48585 -0.0178,0.49231 0.0037,5e-5 v 0.06024 l -5e-4,6.31044 0.3774,0.1103 0.3522,0.1661 0.0823,0.0525 0.0154,0.0078 0.0814,0.0539 0.006,0.0042 0.25,0.1812 0.2235,0.2081 0.1968,0.2325 0.1699,0.2547 0.1424,0.2745 0.1149,0.2921 0.0868,0.3074 0.0585,0.3203 0.0301,0.331 0.0011,0.3393 -0.0282,0.3453 -0.0577,0.3491 -0.0875,0.3505 -0.1176,0.3496 -0.1482,0.3464 -0.179,0.3409 -0.3222,0.4858 -0.3739,0.4368 -0.4184,0.3808 -0.4563,0.3179 -3e-4,2.885 0.9115,0.0601 1.9445,-1.656 0.1667,-0.2576 0.188,-0.2349 0.2076,-0.2118 0.225,-0.1881 0.2402,-0.1638 0.2536,-0.1389 0.2646,-0.1134 0.274,-0.0876 0.281,-0.0612 0.2861,-0.0341 0.2889,-0.0064 0.29,0.0217 0.2888,0.0504 0.2857,0.0795 0.2804,0.1095 0.2729,0.1397 0.2577,0.1665 0.2349,0.1881 0.2118,0.2075 0.1881,0.2249 0.1637,0.2402 0.1388,0.2535 0.1136,0.2647 0.0875,0.2739 0.0611,0.2809 0.034,0.286 0.0064,0.2889 -0.0217,0.2899 -0.0504,0.2888 -0.0797,0.2856 -0.1094,0.2804 -0.1398,0.2731 -0.4535,2.4963 0.4176,0.6029 h 10e-5 l 2.5511,-1.4728 0.0473,-0.554 0.1206,-0.5527 0.1915,-0.5421 0.2596,-0.5219 0.2109,-0.3334 0.232,-0.3082 0.2506,-0.282 0.267,-0.2549 0.281,-0.227 0.2929,-0.1981 0.3022,-0.1683 0.3094,-0.1376 0.314,-0.106 0.3167,-0.0734 0.3169,-0.0402 0.3148,-0.0059 0.3102,0.0294 0.3035,0.0655 0.2946,0.1025 0.2831,0.1404 0.3581,0.253 0.3119,0.3153 5.449,-3.1458 0.0469,-0.0272 0.3386,-0.2105 0.3614,-0.1645 0.3796,-0.1168 0.3931,-0.0672 0.5,-0.0226 0.4939,0.0577 0.4781,0.1365 0.4529,0.2132 0.2652,0.1714 0.242,0.1936 0.2179,0.2136 0.1936,0.2315 0.1687,0.2473 0.1429,0.2611 0.1168,0.2724 0.0902,0.2819 0.0628,0.2894 0.0351,0.2943 0.0066,0.2976 -0.0223,0.2984 -0.052,0.2974 -0.082,0.294 -0.1127,0.2887 -0.144,0.281 -0.2805,0.405 -0.339,0.3532 -0.3908,0.2952 -0.4353,0.2308 0.0018,0.003 -0.0522,0.0302 -5.4661,3.1556 0.0931,0.3819 0.0322,0.3881 -0.0042,0.0974 0.001,0.0172 -0.006,0.0975 -7e-4,0.0074 -0.0321,0.3071 -0.0683,0.2975 -0.1031,0.2867 -0.1357,0.2745 -0.1666,0.2606 -0.1956,0.2456 -0.2229,0.2288 -0.2481,0.211 -0.2718,0.1915 -0.2933,0.1706 -0.3132,0.1484 -0.3311,0.1246 -0.3474,0.0995 -0.3615,0.073 -0.3742,0.0449 -0.3847,0.0155 -0.5819,-0.0361 -0.5652,-0.1053 -0.5391,-0.1718 -0.5033,-0.2361 -2.499,1.4427 0.4035,0.8193 2.4065,0.8554 0.3063,0.0154 0.2975,0.0455 0.2872,0.0738 0.2754,0.1007 0.2619,0.1261 0.2471,0.15 0.2307,0.1725 0.2127,0.1934 0.1934,0.2128 0.1726,0.2306 0.1501,0.2471 0.1262,0.2619 0.1007,0.2752 0.0739,0.2872 0.0453,0.2975 0.0155,0.3063 -0.0155,0.3064 -0.0455,0.2975 -0.0738,0.2871 -0.1007,0.2753 -0.1263,0.2619 -0.1501,0.247 -0.1725,0.2307 -0.1934,0.2126 -0.2128,0.1934 -0.2308,0.1725 -0.2471,0.1502 -0.2619,0.1262 -0.2753,0.1007 -0.2873,0.0739 -0.2975,0.0454 -0.3063,0.0156 -2.3889,0.8557 -0.3136,0.6631 2.551,1.4725 0.5035,-0.2361 0.5391,-0.172 0.5652,-0.1054 0.5819,-0.0361 0.3941,0.0158 0.383,0.0467 0.3695,0.076 0.3543,0.1037 0.337,0.1298 0.318,0.1545 0.2967,0.1776 0.274,0.1991 0.2488,0.2189 0.2219,0.2375 0.1931,0.2542 0.1625,0.2697 0.1296,0.2833 0.095,0.2956 0.0584,0.3063 0.02,0.3153 -0.0403,0.4367 -0.117,0.4277 5.4486,3.145 0.047,0.0271 0.3517,0.188 0.3231,0.2306 0.2908,0.2702 0.2547,0.3067 0.2697,0.4216 0.1968,0.4566 0.1208,0.4823 0.0419,0.4987 -0.016,0.3154 -0.0468,0.3063 -0.076,0.2956 -0.1037,0.2835 -0.13,0.2696 -0.1546,0.2543 -0.1776,0.2375 -0.1991,0.219 -0.2191,0.1991 -0.2376,0.1776 -0.2544,0.1545 -0.2697,0.1299 -0.2835,0.1037 -0.2956,0.076 -0.3063,0.0469 -0.3156,0.0158 -0.4911,-0.0403 -0.4753,-0.1169 -0.451,-0.1907 -0.4175,-0.2615 -0.0018,0.0031 -0.0522,-0.0301 -5.4656,-3.1549 -0.2843,0.2715 -0.32,0.2221 -0.0866,0.0452 -0.0144,0.0094 -0.0874,0.0434 -0.0067,0.0031 -0.282,0.1259 -0.2919,0.0895 -0.2999,0.0543 -0.3056,0.0197 -0.309,-0.014 -0.3105,-0.0465 -0.3096,-0.0785 -0.3068,-0.1094 -0.3016,-0.1395 -0.2944,-0.1687 -0.2851,-0.1969 -0.2736,-0.2244 -0.2597,-0.251 -0.244,-0.2766 -0.2259,-0.3015 -0.2058,-0.3254 -0.2596,-0.5219 -0.1914,-0.542 -0.1207,-0.5528 -0.0469,-0.5539 -2.4988,-1.4423 -0.508,0.7591 0.462,2.5116 0.1398,0.273 0.1094,0.2804 0.0796,0.2855 0.0503,0.2888 0.0217,0.2898 -0.0066,0.2891 -0.0339,0.2859 -0.0612,0.281 -0.0876,0.2739 -0.1136,0.2647 -0.1389,0.2535 -0.1638,0.2402 -0.1881,0.225 -0.2117,0.2074 -0.235,0.1881 -0.2577,0.1666 -0.273,0.1398 -0.2804,0.1094 -0.2857,0.0797 -0.2888,0.0504 -0.2899,0.0217 -0.2891,-0.0064 -0.2859,-0.034 -0.2811,-0.0612 -0.2739,-0.0874 -0.2646,-0.1136 -0.2536,-0.1388 -0.2403,-0.1637 -0.2249,-0.188 -0.2074,-0.2118 -0.1881,-0.2349 -0.1667,-0.2575 -1.9354,-1.6406 -0.7313,0.0602 v 0 l -2e-4,2.9453 0.4562,0.3177 0.4185,0.3808 0.3737,0.4369 0.3223,0.4856 0.1833,0.3493 0.1509,0.3549 0.1189,0.358 0.0873,0.3586 0.056,0.3568 0.0251,0.3525 -0.0053,0.3458 -0.0356,0.3367 -0.0652,0.3251 -0.0948,0.3109 -0.1236,0.2944 -0.1525,0.2754 -0.1806,0.254 -0.2085,0.2301 -0.236,0.2037 -0.2633,0.175 -0.3982,0.1836 -0.429,0.1125 -4e-4,6.2908 v 0.0543 l 0.0129,0.3984 -0.0382,0.3953 -0.0887,0.387 -0.1384,0.3738 -0.2304,0.4444 -0.297,0.3986 -0.3573,0.346 -0.4111,0.2857 -0.2812,0.1438 -0.2886,0.1127 -0.294,0.0821 -0.2974,0.0518 -0.2985,0.0224 -0.2976,-0.0067 -0.2945,-0.0351 -0.2892,-0.0628 -0.282,-0.0902 -0.2726,-0.1168 -0.261,-0.143 -0.2473,-0.1686 -0.2316,-0.1936 -0.2136,-0.218 -0.1937,-0.242 -0.1714,-0.2651 -0.2106,-0.4454 -0.1363,-0.4701 -0.0602,-0.4859 0.0177,-0.4923 -0.0035,-1e-4 v -0.0601 l 4e-4,-6.3105 -0.3772,-0.1103 -0.3523,-0.1662 -0.0823,-0.0524 -0.0154,-0.0078 -0.0814,-0.0539 -0.006,-0.0042 -0.2499,-0.1812 -0.2236,-0.208 -0.1968,-0.2326 -0.1698,-0.2547 -0.1425,-0.2746 -0.1147,-0.292 -0.0868,-0.3075 -0.0586,-0.3203 -0.03,-0.331 -0.0011,-0.3392 0.0281,-0.3453 0.0577,-0.3491 0.0875,-0.3505 0.1177,-0.3497 0.1481,-0.3463 0.1789,-0.341 0.3224,-0.4857 0.3738,-0.4369 0.4185,-0.3807 0.4563,-0.3179 1e-4,-2.885 -0.9115,-0.0602 -1.9444,1.6561 -0.1666,0.2576 -0.1881,0.2349 -0.2076,0.2118 -0.2249,0.1881 -0.2402,0.1637 -0.2536,0.1388 -0.2648,0.1136 -0.274,0.0876 -0.2808,0.0612 -0.2861,0.0341 -0.2891,0.0064 -0.2899,-0.0217 -0.2888,-0.0504 -0.2857,-0.0796 -0.2803,-0.1094 -0.2731,-0.1398 -0.2576,-0.1665 -0.235,-0.188 -0.2117,-0.2075 -0.1881,-0.2249 -0.1638,-0.2402 -0.1388,-0.2536 -0.1135,-0.2646 -0.0877,-0.2739 -0.061,-0.2809 -0.034,-0.286 -0.0064,-0.289 0.0217,-0.2898 0.0504,-0.2888 0.0797,-0.2857 0.1095,-0.2803 0.1397,-0.2731 0.4536,-2.4963 -0.4178,-0.6029 -2.5512,1.473 -0.0472,0.5539 -0.1207,0.5528 -0.1915,0.5419 -0.2596,0.522 -0.211,0.3334 -0.2319,0.3082 -0.2506,0.282 -0.267,0.2549 -0.2811,0.227 -0.2928,0.1981 -0.3022,0.1683 -0.3094,0.1376 -0.3142,0.106 -0.3166,0.0735 -0.3168,0.0401 -0.3148,0.0059 -0.3102,-0.0294 -0.3036,-0.0655 -0.2946,-0.1025 -0.2831,-0.1404 -0.3581,-0.2532 -0.312,-0.3151 -5.449,3.1458 -0.047,0.0271 -0.3386,0.2106 -0.3614,0.1645 -0.3796,0.1168 -0.393,0.0672 -0.5,0.0226 -0.4939,-0.0577 -0.4782,-0.1365 -0.4528,-0.213 -0.2652,-0.1715 -0.2419,-0.1936 -0.2181,-0.2136 -0.1936,-0.2316 -0.1685,-0.2473 -0.143,-0.2609 -0.1169,-0.2726 -0.0901,-0.2818 -0.0629,-0.2893 -0.035,-0.2944 -0.0066,-0.2975 0.0224,-0.2985 0.0519,-0.2974 0.082,-0.294 0.1128,-0.2886 0.1439,-0.2812 0.2805,-0.405 0.3391,-0.3532 0.3907,-0.2951 0.4353,-0.2309 -0.0018,-0.0031 0.0522,-0.0301 5.466,-3.1556 -0.093,-0.3818 -0.0322,-0.3883 0.0042,-0.0973 -10e-4,-0.0172 0.006,-0.0975 7e-4,-0.0074 0.032,-0.307 0.0685,-0.2977 0.103,-0.2866 0.1357,-0.2745 0.1666,-0.2606 0.1956,-0.2456 0.2229,-0.2288 0.2481,-0.211 0.2717,-0.1915 0.2934,-0.1705 0.3132,-0.1483 0.3311,-0.1248 0.3473,-0.0995 0.3617,-0.0729 0.3741,-0.045 0.3847,-0.0156 0.5819,0.0362 0.5652,0.1052 0.5391,0.172 0.5033,0.2361 2.499,-1.4427 -0.4035,-0.8193 -2.4065,-0.8554 -0.3063,-0.0156 -0.2975,-0.0453 -0.2873,-0.0738 -0.2753,-0.1007 -0.2619,-0.1261 -0.2471,-0.1502 -0.2307,-0.1725 -0.2128,-0.1932 -0.1933,-0.2128 -0.1725,-0.2306 -0.1501,-0.2471 -0.1261,-0.2619 -0.1008,-0.2752 -0.0739,-0.2872 -0.0454,-0.2975 -0.0154,-0.3064 0.0155,-0.3062 0.0454,-0.2976 0.0739,-0.2871 0.1008,-0.2753 0.1262,-0.2619 0.1502,-0.2471 0.1724,-0.2307 0.1934,-0.2128 0.2129,-0.1934 0.2307,-0.1725 0.2472,-0.1501 0.2619,-0.1261 0.2753,-0.1008 0.2873,-0.0739 0.2975,-0.0454 0.3064,-0.0154 2.3888,-0.8558 0.3137,-0.6632 v 0"
       id="path2811"
       inkscape:connector-curvature="0"
       sodipodi:nodetypes="ccccccccccccccccccccccccccccccccccccccccccccccccccccccccccccccccccccccccccccccccccccccccccccccccccccccccccccccccccccccccccccccccccccccccccccccccccccccccccccccccccccccccccccccccccccccccccccccccccccccccccccccccccccccccccccccccccccccccccccccccccccccccccccccccccccccccccccccccccccccccccccccccccccccccccccccccccccccccccccccccccccccccccccccccccccccccccccccccccccccccccccccccccccccccccccccccccccccccccccccccccccccccccccccccccccccccccccccccccccccccccccccccccccccccccccccccccccccccccccccccccccccccccccccccccccccccccccccccccccccccccccccccccccccccccccccccccccccccccccccccccccccccccccccccccccccccccccccccccccccccccccccccccccccccccccccccccccccccccccccccccccccccccccccccccccccccccccccccccccccccccccccccccccccccccccccccccccccccccccccc" />
  </g>
  <g
     id="g2632"
     inkscape:groupmode="layer"
     inkscape:label="Margin-disabled"
     sodipodi:insensitive="true"
     style="display:none"
     transform="translate(-24.145694,-2.3730284)" />
  <g
     id="g2634"
     inkscape:groupmode="layer"
     inkscape:label="B.CrtYd-disabled"
     sodipodi:insensitive="true"
     style="display:none"
     transform="translate(-24.145694,-2.3730284)" />
  <g
     id="g2636"
     inkscape:groupmode="layer"
     inkscape:label="F.CrtYd-disabled"
     sodipodi:insensitive="true"
     style="display:none"
     transform="translate(-24.145694,-2.3730284)" />
  <g
     id="g2638"
     inkscape:groupmode="layer"
     inkscape:label="B.Fab-disabled"
     sodipodi:insensitive="true"
     style="display:none"
     transform="translate(-24.145694,-2.3730284)" />
  <g
     id="g2640"
     inkscape:groupmode="layer"
     inkscape:label="F.Fab"
     style="display:inline"
     sodipodi:insensitive="true"
     transform="translate(-24.145694,-2.3730284)">
    <path
       style="fill:none;stroke:#000000;stroke-width:0.264583px;stroke-linecap:butt;stroke-linejoin:miter;stroke-opacity:1"
       d="M 54.19308,70.397855 V 2.5511296"
       id="path1484" />
    <path
       style="fill:none;stroke:#000000;stroke-width:0.264583px;stroke-linecap:butt;stroke-linejoin:miter;stroke-opacity:1"
       d="M 24.762352,53.430685 83.529316,19.504796"
       id="path1923" />
    <path
       style="fill:none;stroke:#000000;stroke-width:0.264583px;stroke-linecap:butt;stroke-linejoin:miter;stroke-opacity:1"
       d="M 83.610882,53.477859 24.680811,19.457665"
       id="path1925" />
    <path
       id="circle2051"
       style="stroke:#000000;stroke-width:0.25"
       d="m 54.568077,4.4744911 a 0.375,0.375 0 0 1 -0.375,0.375 0.375,0.375 0 0 1 -0.375,-0.375 0.375,0.375 0 0 1 0.375,-0.375 0.375,0.375 0 0 1 0.375,0.375 z" />
    <path
       id="circle2801"
       style="stroke:#000000;stroke-width:0.25"
       transform="rotate(-60)"
       d="m -7.6162982,86.16983 a 0.375,0.375 0 0 1 -0.375,0.375 0.375,0.375 0 0 1 -0.375,-0.375 0.375,0.375 0 0 1 0.375,-0.375 0.375,0.375 0 0 1 0.375,0.375 z" />
    <path
       id="path1951"
       style="fill:none;stroke:#000000;stroke-width:0.249999"
       d="m 64.020836,36.469498 a 9.875,9.875 0 0 1 -9.875,9.875 9.875,9.875 0 0 1 -9.875,-9.875 9.875,9.875 0 0 1 9.875,-9.875 9.875,9.875 0 0 1 9.875,9.875 z" />
    <path
       id="circle2803"
       style="stroke:#000000;stroke-width:0.25"
       transform="rotate(-60)"
       d="m -0.6162982,44.16983 a 0.375,0.375 0 0 1 -0.375,0.375 0.375,0.375 0 0 1 -0.375,-0.375 0.375,0.375 0 0 1 0.375,-0.375 0.375,0.375 0 0 1 0.375,0.375 z" />
    <path
       id="circle2805"
       style="stroke:#000000;stroke-width:0.25"
       transform="rotate(-60)"
       d="m -0.6162982,86.16983 a 0.375,0.375 0 0 1 -0.375,0.375 0.375,0.375 0 0 1 -0.375,-0.375 0.375,0.375 0 0 1 0.375,-0.375 0.375,0.375 0 0 1 0.375,0.375 z" />
    <path
       id="circle2807"
       style="stroke:#000000;stroke-width:0.25"
       transform="rotate(-60)"
       d="m -7.6162982,44.16983 a 0.375,0.375 0 0 1 -0.375,0.375 0.375,0.375 0 0 1 -0.375,-0.375 0.375,0.375 0 0 1 0.375,-0.375 0.375,0.375 0 0 1 0.375,0.375 z" />
    <path
       id="circle2811"
       style="stroke:#000000;stroke-width:0.25"
       transform="rotate(-120)"
       d="m -61.809376,49.695343 a 0.375,0.375 0 0 1 -0.375,0.375 0.375,0.375 0 0 1 -0.375,-0.375 0.375,0.375 0 0 1 0.375,-0.375 0.375,0.375 0 0 1 0.375,0.375 z" />
    <path
       id="circle2813"
       style="stroke:#000000;stroke-width:0.25"
       transform="rotate(-120)"
       d="m -54.809376,7.6953378 a 0.375,0.375 0 0 1 -0.375,0.375 0.375,0.375 0 0 1 -0.375,-0.375 0.375,0.375 0 0 1 0.375,-0.375 0.375,0.375 0 0 1 0.375,0.375 z" />
    <path
       id="circle2815"
       style="stroke:#000000;stroke-width:0.25"
       transform="rotate(-120)"
       d="m -54.809376,49.695343 a 0.375,0.375 0 0 1 -0.375,0.375 0.375,0.375 0 0 1 -0.375,-0.375 0.375,0.375 0 0 1 0.375,-0.375 0.375,0.375 0 0 1 0.375,0.375 z" />
    <path
       id="circle2817"
       style="stroke:#000000;stroke-width:0.25"
       transform="rotate(-120)"
       d="m -61.809376,7.6953378 a 0.375,0.375 0 0 1 -0.375,0.375 0.375,0.375 0 0 1 -0.375,-0.375 0.375,0.375 0 0 1 0.375,-0.375 0.375,0.375 0 0 1 0.375,0.375 z" />
    <path
       id="circle3379"
       style="stroke:#000000;stroke-width:0.25"
       d="m 54.568077,68.474495 a 0.375,0.375 0 0 1 -0.375,0.375 0.375,0.375 0 0 1 -0.375,-0.375 0.375,0.375 0 0 1 0.375,-0.375 0.375,0.375 0 0 1 0.375,0.375 z" />
    <path
       id="circle3381"
       style="stroke:#000000;stroke-width:0.25"
       d="m 54.568077,21.474491 a 0.375,0.375 0 0 1 -0.375,0.375 0.375,0.375 0 0 1 -0.375,-0.375 0.375,0.375 0 0 1 0.375,-0.375 0.375,0.375 0 0 1 0.375,0.375 z" />
    <path
       style="fill:none;stroke:#000000;stroke-width:0.264583px;stroke-linecap:butt;stroke-linejoin:miter;stroke-opacity:1"
       d="m 81.581132,52.286993 -1.117157,1.934971"
       id="path3506" />
    <path
       style="fill:none;stroke:#000000;stroke-width:0.264583px;stroke-linecap:butt;stroke-linejoin:miter;stroke-opacity:1"
       d="m 82.698289,50.35202 -1.117157,1.934973"
       id="path3508" />
    <path
       style="fill:none;stroke:#000000;stroke-width:0.264583px;stroke-linecap:butt;stroke-linejoin:miter;stroke-opacity:1"
       d="m 26.805026,20.661992 -1.117157,1.934972"
       id="path3510" />
    <path
       style="fill:none;stroke:#000000;stroke-width:0.264583px;stroke-linecap:butt;stroke-linejoin:miter;stroke-opacity:1"
       d="m 27.922181,18.727021 -1.117155,1.934971"
       id="path3512" />
    <path
       style="fill:none;stroke:#000000;stroke-width:0.264583px;stroke-linecap:butt;stroke-linejoin:miter;stroke-opacity:1"
       d="m 81.581133,20.661993 1.117156,1.934971"
       id="path3516" />
    <path
       style="fill:none;stroke:#000000;stroke-width:0.264583px;stroke-linecap:butt;stroke-linejoin:miter;stroke-opacity:1"
       d="m 80.463977,18.727022 1.117156,1.934971"
       id="path3518" />
    <path
       style="fill:none;stroke:#000000;stroke-width:0.264583px;stroke-linecap:butt;stroke-linejoin:miter;stroke-opacity:1"
       d="m 26.805027,52.286992 1.117154,1.934973"
       id="path3520" />
    <path
       style="fill:none;stroke:#000000;stroke-width:0.264583px;stroke-linecap:butt;stroke-linejoin:miter;stroke-opacity:1"
       d="m 25.68787,50.352022 1.117157,1.93497"
       id="path3522" />
  </g>
  <g
     id="g2642"
     inkscape:groupmode="layer"
     inkscape:label="Drill"
     sodipodi:insensitive="true"
     style="display:none"
     transform="translate(-24.145694,-2.3730284)" />
</svg>
